<?xml version="1.0" encoding="UTF-8"?>
<svg viewBox="0 0 256 256" xmlns="http://www.w3.org/2000/svg" xmlns:xlink="http://www.w3.org/1999/xlink">
 <defs>
  <filter id="x">
   <feGaussianBlur stdDeviation="1.51019"/>
  </filter>
  <filter id="z">
   <feGaussianBlur stdDeviation="3.28914"/>
  </filter>
  <filter id="aa">
   <feGaussianBlur stdDeviation="1.7846"/>
  </filter>
  <filter id="s">
   <feGaussianBlur stdDeviation=".65095"/>
  </filter>
  <filter id="r">
   <feGaussianBlur stdDeviation=".42332"/>
  </filter>
  <filter id="n">
   <feGaussianBlur stdDeviation="2.31262"/>
  </filter>
  <filter id="m">
   <feGaussianBlur stdDeviation="1.41373"/>
  </filter>
  <filter id="w" x="-.20981" y="-.50078" width="1.4196" height="2.0016">
   <feGaussianBlur stdDeviation="3.18799"/>
  </filter>
  <filter id="v" x="-.07172" y="-.11898" width="1.1434" height="1.238">
   <feGaussianBlur stdDeviation=".74906"/>
  </filter>
  <filter id="ab" x="-.19698" y="-.22513" width="1.394" height="1.4502">
   <feGaussianBlur stdDeviation="1.11431"/>
  </filter>
  <filter id="y" x="-.07237" y="-.11724" width="1.1447" height="1.2345">
   <feGaussianBlur stdDeviation="2.58619"/>
  </filter>
  <filter id="u" x="-.12757" y="-.19955" width="1.2551" height="1.3991">
   <feGaussianBlur stdDeviation="3.22252"/>
  </filter>
  <filter id="t" x="-.11388" y="-.11973" width="1.2278" height="1.2394">
   <feGaussianBlur stdDeviation="1.34425"/>
  </filter>
  <filter id="q" x="-.16697" y="-.28333" width="1.3339" height="1.5667">
   <feGaussianBlur stdDeviation="1.77834"/>
  </filter>
  <filter id="p" x="-.30557" y="-.27223" width="1.6111" height="1.5445">
   <feGaussianBlur stdDeviation="26.49476"/>
  </filter>
  <filter id="o" x="-.2395" y="-.21337" width="1.479" height="1.4267">
   <feGaussianBlur stdDeviation="20.76616"/>
  </filter>
  <linearGradient id="a">
   <stop stop-color="#eee" offset="0"/>
   <stop stop-color="#eee" stop-opacity="0" offset="1"/>
  </linearGradient>
  <linearGradient id="b">
   <stop stop-color="#fff" stop-opacity="0" offset="0"/>
   <stop stop-color="#fff" stop-opacity=".49804" offset=".77863"/>
   <stop stop-color="#fff" offset="1"/>
  </linearGradient>
  <linearGradient id="c">
   <stop stop-color="#fe0505" offset="0"/>
   <stop stop-color="#8b0000" offset="1"/>
  </linearGradient>
  <linearGradient id="l" x1="-426.19" x2="-477.66" y1="206.34" y2="283.8" gradientUnits="userSpaceOnUse">
   <stop offset="0"/>
   <stop stop-opacity="0" offset="1"/>
  </linearGradient>
  <linearGradient id="i" x1="439.81" x2="501.59" y1="545.83" y2="513.33" gradientUnits="userSpaceOnUse">
   <stop stop-color="#200" offset="0"/>
   <stop stop-color="#570000" stop-opacity="0" offset="1"/>
  </linearGradient>
  <linearGradient id="k" x1="165.33" x2="140.42" y1="428.26" y2="425.43" gradientUnits="userSpaceOnUse" xlink:href="#a"/>
  <linearGradient id="j" x1="269.99" x2="247.39" y1="391.49" y2="413.41" gradientUnits="userSpaceOnUse" xlink:href="#a"/>
  <linearGradient id="h" x1="605.97" x2="528" y1="513.27" y2="486.4" gradientUnits="userSpaceOnUse" xlink:href="#a"/>
  <radialGradient id="g" cx="-113.91" cy="520.01" r="96.482" gradientTransform="matrix(.9107 .36281 -.24003 .60251 132.1 251.08)" gradientUnits="userSpaceOnUse" xlink:href="#c"/>
  <radialGradient id="f" cx="-109.74" cy="531.5" r="96.481" gradientUnits="userSpaceOnUse" xlink:href="#b"/>
  <radialGradient id="e" cx="529.47" cy="496.97" r="86.418" fx="537.55" fy="461.21" gradientTransform="matrix(.86412 -.59392 .46267 .67316 -167.72 488.17)" gradientUnits="userSpaceOnUse" xlink:href="#c"/>
  <radialGradient id="d" cx="519.74" cy="520.24" r="86.43" gradientUnits="userSpaceOnUse" xlink:href="#b"/>
 </defs>
 <g transform="matrix(.52563 0 0 .52563 325.92 -65.929)">
  <path transform="matrix(.75926 0 0 .77032 -98.528 47.393)" d="m-483.29 248.89c109.07-73.882 78.888-40.567 28.288 16.825-33.844 22.933-38.752 3.1787-28.288-16.825z" fill="url(#l)" fill-rule="evenodd" filter="url(#n)" opacity=".27626"/>
  <path d="m-208 450.36c0 28.576-28.824 43.235-83 88s-111.07 5.9816-83-88 37.184-88 83-88 83 55.424 83 88z" fill-rule="evenodd" filter="url(#p)" opacity=".58755"/>
  <path d="m-410 466.36c0 28.576-28.824 43.235-83 88s-111.07 5.9816-83-88 37.184-88 83-88 83 55.424 83 88z" fill-rule="evenodd" filter="url(#o)" opacity=".53307"/>
  <g transform="translate(-602,-138)" fill-rule="evenodd">
   <path d="m161.22 321.22c2.1463 7.8702-10.898 16.814-0.34375 20.5-13.325 48.99-12.234 100.06-12.062 150.66l6.375-0.03125c-0.17226-50.681-1.1682-101.16 11.844-149 4.0453 0.92776 7.9427 1.6341 9.0312 1.9062 9.7265 2.4316-4.8436 6.164 11.312 2.125l0.15625-0.03125c39.26 32.236 78.386 67.496 117.53 118.66l5.0625-3.9062c-38.364-50.139-76.769-85.202-115.03-116.81 3.3202-1.2233 4.3634-2.7322 2.9062-6.375-2.28-5.7001-7.8721-8.8821-14.844-10.625-8.2797-2.0699-12.924-5.5603-21.938-7.0625z" fill="#616f3c"/>
   <path d="m165.19 338.11c-14.432 49.353-13.563 101.79-13.312 152.97 5.2833-0.90793 0.94209-11.282 2.3192-16.031-0.17216-45.818 0.38726-92.496 13.462-136.72-0.61491 0.19304-2.4505-1.4758-2.4688-0.21875z" fill="url(#k)" filter="url(#r)" opacity=".70039"/>
   <path d="m165.78 329.22c-0.04446 3.3376-3.3258 8.5523 1.5938 10.531 3.5277 1.1596 7.2225 1.1721 9.875 4.1562 3.2528 3.0393 9.2684 1.467 8.9062-3.5 0.82141-4.7037-2.0519-9.5194-7.165-9.5233-6.0962-0.99634-11.084-4.8325-16.304-7.8829l3.0938 6.2188z" fill="#373f22" filter="url(#t)"/>
   <path d="m184.38 331.12c-3.025 0 0.92324 6.0936-1.2188 9-3.182 4.3176-4.8063 8.0312 5.4688 6.5312 0.51374-0.075 1.0788-0.21485 1.6562-0.40625 42.986 34.979 83.268 73.476 116.94 117.66 4.0447-2.8153-4.0814-7.1928-5.3438-10.625-31.969-40.366-69.335-75.611-109.16-108.16 1.9098-1.1595 3.5-2.8865 3.5-5 0-3.6105-8.8188-9-11.844-9z" fill="url(#j)" filter="url(#s)"/>
   <path d="m163.22 323.42c-0.44239 0.5961 0.52427 1.5712-0.80267 1.9033-1.595 2.4233-2.9579 5.2583-3.1926 8.1567 0.31545 2.6725 4.438 3.4721 5.6349 1.0284 0.8307-2.495-0.79126-5.0995-0.37693-7.7302-0.03209-1.18-0.99594-2.9044 0.77863-1.6379 4.2024 1.8354 8.356 3.7997 12.482 5.7852 1.52 0.91815 4.0497-0.60658 2.0355-2.1011-3.1056-2.8784-7.5187-3.3565-11.419-4.5391-1.6887-0.41325-3.4033-0.74418-5.1399-0.86536z" fill="#633918" filter="url(#q)" opacity=".87549"/>
  </g>
  <g transform="translate(-357.35 -110.7)">
   <path d="m-13.277 526.51c1.0102 32.139-40.155 105.31-108.09 95.964-44.216-6.086-83.843-34.531-84.853-103.04-0.68237-46.276 48.993-114.81 111.12-58.589 10.352 9.3682 71.721-3.8547 81.822 65.66z" fill="url(#g)"/>
   <path d="m-141.25 439.7c-38.801-0.23315-65.47 45.735-64.969 79.719 1.0102 68.504 40.659 96.977 84.875 103.06 67.931 9.3502 109.07-63.83 108.06-95.969-10.102-69.515-71.46-56.288-81.812-65.656-16.502-14.933-32.122-21.072-46.156-21.156zm15.031 10.219c0.17871 0.09409-0.18588 0.98006-1.2812 2.9375 10.809 0.47185 21.252 20.039 34.188 33.562 1.4988-8.9592-13.502-30.331-3.2812-18.125 11.985-7.1392 21.269 7.0468 27.531 10.062 5.5526 2.516 10.842 4.2513 15.938 11.031-3.6193 10.3 17.388 21.211 7.3438 31.688 5.0054 15.244 3.6849-10.381 3.6875-12.156l1.4062 8.7812c0.90074 6.774 4.5699 7.8906-0.65625 30.719-11.037 7.443-14.103 19.043-20.5 27.062-21.136 1.2214-25.037 8.9627-22.938 12.062-13.283-4.8584-25.711 27.562-34.312 11.688-9.8142 1.2244-12.324-8.2555-19.344-11.594-11.131-1.4336-11.829-20.534-21.375-19.188-10.586 6.4729-7.2206-16.694-12.688-23.844 9.4029-13.513-12.302-26.687-8.9688-28.594-12.335-18.209 2.0204-34.468 11.25-30.906 4.9258-4.3195 11.944-1.7649 20.844-8.0938 5.23-4.7736 22.191-27.602 23.156-27.094zm94.812 46.938c7.4914-2e-5 14.312 13.628 14.312 27.625 2.095 39.994-28.372 65.366-30.844 64.281-3.0607-1.3435 31.532-38.656 18.031-38.656-7.4914 3e-5 -7.25-12.628-7.25-26.625s-1.7414-26.625 5.75-26.625z" fill="url(#f)" opacity=".43969"/>
   <path d="m-116.06 465.04c-6.4374-0.16451-8.2468 8.6594-3.6875 12.344 9.8718 8.6162 23.256 12.806 32.406 22.312 8.8854 7.1659 22.262 12.87 33.219 7.0625 6.5155-4.585 2.1509-13.998-2.2188-18.531-10.212-9.2184-24.707-10.764-36.726-16.977-7.3247-2.7998-14.969-6.3734-22.993-6.2108z" fill="#fff" filter="url(#y)" opacity=".72374"/>
   <path d="m-115.84 471.06c-1.3684 2.1592 2.9636 4.3795 4.5378 5.2451 10.956 6.3752 21.823 12.998 31.306 21.317 6.5041 4.0508 16.259 8.3801 23.062 3.25 0.16341-8.4559-9.4879-12.773-16.241-15.528-12.373-3.7475-23.828-9.9161-36.29-13.535-2.0935-0.44673-4.2351-0.79158-6.375-0.75z" fill="#fff" opacity=".78599"/>
   <path d="m-118.38 445.05c-0.35708 1.6219-0.10904 3.7899 1.0625 6.7188 3.7761 9.4402 19.111 4.91 23.219 13.125 0.42115 0.84229 1.2828 1.308 2.4062 1.5625 1.5713-0.24743 3.0999-0.16397 4.5625 0.15625h0.03125c3.6659-0.24335 8.0532-0.95219 11.625-0.6875-9.1746-1.505-16.602-2.327-19.625-5.0625-7.9952-7.2353-15.78-12.395-23.281-15.812zm45.438 21.312c2.4489 0.70693 4.125 2.289 4.125 5.5938 0 4.348 2.5548 7.0889 5.875 9.2188 0.93432 0.47887 1.861 0.99895 2.7812 1.5938 0.03324 0.01722 0.06046 0.04534 0.09375 0.0625 0.03894 0.0254 0.08608 0.03683 0.125 0.0625 4.5099 2.3106 9.4217 4.0987 11.312 7.25 4.386 7.3099 14.946 5.3828 21.344 0.09375-12.747-16.555-31.056-21.327-45.656-23.875z" fill="#fff" filter="url(#x)" opacity=".9144"/>
   <path transform="matrix(1.2299 .56234 0 .41415 -269.27 183.64)" d="m124.25 478.6a6.0609 7.0711 0 1 1 -12.122 0 6.0609 7.0711 0 1 1 12.122 0z" fill="#eee" filter="url(#v)"/>
   <path d="m-41.214 522.61c-4.2799 9.9737-22.925 3.0088-30.357-4.6428 7.2869-4.7031 31.395-4.8696 30.357 4.6428z" fill="#fff" filter="url(#w)" opacity=".68872"/>
  </g>
  <g transform="translate(-783.65 -129.07)">
   <path d="m604.8 509.94c9.8156 54.421-35.568 88.035-70.357 97.934-34.801 9.9025-95.202-30.515-100.06-75.307-8.6121-79.475 36.848-61.828 70.357-89.449 43.601-35.939 100.06 15.342 100.06 66.822z" fill="url(#e)"/>
   <path d="m467.06 466.12c-13.4 4.8936-26.033 15.462-27.911 30.381-3.2924 17.5-2.7186 36.436 4.1296 53.057 12.335 26.64 37.801 46.093 65.656 54.06 13.707 3.7584 28.24 0.94961 40.555-5.7175 8.9797-4.2155 18.746-10.348 25.382-16.749-22.586 6.6733-46.024-3.1336-64.719-15.5-23.529-15.971-42.845-41.513-43.651-71.03-0.41579-9.617-0.18514-19.36 1.4951-28.845l-0.9375 0.34375z" fill="url(#i)" filter="url(#z)" opacity=".79377"/>
   <path d="m581.04 520.62c7.9144-12.181-12.235-82.731-54.182-67.872-32.007 11.338-7.3675 42.482 5.3213 49.12 20.4 10.671 44.46 25.525 48.861 18.752z" fill="url(#h)" fill-rule="evenodd" filter="url(#aa)" opacity=".5642"/>
   <path d="m541.78 453.38c-6.5311-0.34564-16.078-0.93548-18.5 6.8125-1.8765 5.2093 1.2162 12.265 7.4375 12 6.0739-1.1353 13.621-4.5934 18.594 0.96875 6.3981 3.7458 10.973 12.183 18.875 12.344 7.0492-2.4059 6.0209-12.92 1.3438-17.219-6.6637-8.4152-16.391-15.998-27.75-14.906z" fill="#eee" filter="url(#u)"/>
   <path d="m536.62 431.09c-10.739-0.03866-21.656 3.608-31.875 12.031-33.509 27.621-78.987 9.9626-70.375 89.438 4.8538 44.792 65.262 85.215 100.06 75.312 34.789-9.8991 80.191-43.517 70.375-97.938 0-39.414-33.107-78.717-68.188-78.844zm-2.0625 15.812c3.6029 0.70525 7.0919 1.8323 10.625 2.8125 8.5869 1.4634 18.01 2.6373 21.781 11.906 7.2752 4.7221 7.2838 13.222 10.75 20.219 8.8361 3.3752 7.9437 11.881 8.2812 18.594 5.9597 5.5017 0.12222 13.795 0.34375 21 3.495 3.704 6.2348 8.7762 1.4375 13.312-3.0192 4.7054-1.9323 12.329-8.8438 14.125-0.96635 6.2182-5.5654 17.352-10.531 10.625-7.124-3.3297-9.5594 4.5089-12.375 8.5312-7.4531 2.2643-17.87 6.2208-25.656 2.5938-6.4325-4.0095-13.953 2.9347-20.688-1.0312-6.2709-4.9898-14.678-7.9001-22.344-10.688-3.7398-8.166-9.6267-12.901-14.594-19.688-2.1493-2.053-6.4616-14.355-5.4375-5.3438 0.40219 6.1653 1.9706 12.83-3.5312 17.094 2.5352 2.9982-0.57986 7.0612 2.8438 10.031 8.9848 4.9828-0.14521 5.858-5.8438 3.5625-6.7282-1.3304-12.085-10.69-9.8125-17.344-2.3822-5.6953-8.7228-12.767-10.375-20.156-4.3797-7.135-2.876-11.672-1.25-17.75-0.84051-5.5234 7.9326-3.3328 10.75-9.375 9.335 0.85596 5.8524-10.246 10.406-14.344 7.1882-3.0227 2.6343-11.569 9.5312-14.938 7.8825-1.933 13.703-6.3053 19.562-11.812 9-1.3679 18.3-2.9834 26.906-6.7188 5.0946-5.181 12.896-0.7133 18.062-5.2188z" fill="url(#d)" opacity=".43969"/>
   <path d="m569 474.11c1 16.866-7.0116 1.3537-22.25-7.25-6.9648-3.9324-19.423 6.0524-19.75-2.25-0.30984-7.8599 3.6401-7.3064 16.75-7.25 12.834 0.05523 19.604 10.013 25.25 16.75z" fill="#fff" opacity=".82879"/>
   <path transform="translate(179.61 -7.7782)" d="m317.49 477.48a5.6568 4.9498 0 1 1 -11.314 0 5.6568 4.9498 0 1 1 11.314 0z" fill="#fff" filter="url(#ab)" opacity=".45136"/>
   <path transform="translate(1.3679 1.3833)" d="m491.09 470.94a1.9445 1.591 0 1 1 -3.8891 0 1.9445 1.591 0 1 1 3.8891 0z" fill="#fff" opacity=".5642"/>
  </g>
  <path d="m-259.97 306.69c17.86 4.3107 23.818 0.46198 41.401 12.968 16.785 11.938 20.775 26.044 28.464 37.703 0.25962 1.8715 2.5199 6.4342 3.0333 2.1184 1.4606-4.5438 0.94471-5.9439-2.3659-9.7064 2.9358 0.79169-27.356-58.856-70.532-43.084z" fill="#fff" fill-rule="evenodd" filter="url(#m)"/>
 </g>
</svg>
