<?xml version="1.0" standalone="no"?>
<!DOCTYPE svg PUBLIC "-//W3C//DTD SVG 20010904//EN"
 "http://www.w3.org/TR/2001/REC-SVG-20010904/DTD/svg10.dtd">
<svg version="1.0" xmlns="http://www.w3.org/2000/svg"
 width="645.000000pt" height="475.000000pt" viewBox="0 0 645.000000 475.000000"
 preserveAspectRatio="xMidYMid meet">

<g transform="translate(0.000000,475.000000) scale(0.100000,-0.100000)"
fill="#000000" stroke="none">
<path d="M3678 4344 c-33 -39 -42 -44 -75 -44 -25 0 -34 4 -30 13 3 8 1 20 -4
28 -8 12 -13 10 -28 -8 -12 -15 -22 -18 -32 -12 -8 5 -17 9 -21 9 -12 0 -9
-38 3 -45 6 -5 4 -12 -7 -20 -20 -14 -13 -45 11 -45 16 0 18 -12 9 -46 -4 -14
-16 -24 -35 -28 -38 -7 -37 -31 1 -45 27 -9 30 -14 30 -50 0 -37 -2 -41 -25
-41 -28 0 -35 -24 -10 -34 13 -5 14 -10 5 -27 -16 -28 2 -48 25 -29 13 11 18
10 29 -5 15 -21 46 -14 46 10 0 18 7 19 49 4 17 -6 31 -16 31 -23 0 -7 5 -17
12 -24 17 -17 48 4 48 33 0 19 5 25 23 25 12 0 32 3 45 6 19 5 22 2 22 -20 0
-30 24 -35 39 -9 7 13 12 14 23 6 8 -7 19 -8 28 -3 11 7 12 11 0 24 -11 14
-10 19 5 36 20 22 13 40 -16 40 -18 0 -20 4 -14 33 9 41 13 47 31 47 8 0 14 9
14 20 0 13 -7 20 -20 20 -17 0 -20 7 -20 45 0 41 2 45 25 45 28 0 32 12 10 30
-12 10 -12 16 -4 26 6 8 9 21 5 29 -4 12 -10 13 -25 6 -14 -8 -22 -7 -31 4
-18 21 -41 19 -47 -5 -3 -11 -7 -20 -9 -20 -15 0 -74 31 -74 38 0 18 -30 22
-42 6z m32 -14 c0 -11 82 -50 104 -50 9 0 12 9 8 25 -5 30 13 34 21 4 5 -17 9
-19 26 -10 30 16 36 13 17 -8 -16 -18 -16 -20 6 -36 l23 -17 -27 6 -28 6 0
-60 c0 -53 2 -60 20 -60 25 0 26 -16 1 -23 -12 -3 -21 -17 -25 -41 -4 -21 -10
-45 -13 -53 -5 -13 -1 -15 20 -9 30 7 37 -8 10 -23 -14 -8 -15 -11 -4 -25 16
-19 6 -35 -11 -18 -16 16 -28 15 -28 -2 0 -8 -5 -18 -11 -22 -9 -5 -10 1 -5
20 6 24 4 26 -23 26 -63 0 -90 -11 -93 -38 -4 -32 -27 -41 -35 -14 -3 14 -21
26 -51 36 -59 21 -65 20 -59 -4 3 -11 1 -23 -5 -26 -5 -3 -12 3 -15 15 -6 22
-18 27 -28 11 -3 -5 -13 -10 -22 -10 -14 0 -14 2 1 19 16 17 15 19 -6 35 l-23
17 28 -6 27 -5 0 60 c0 57 -1 60 -24 60 -37 0 -42 19 -7 26 31 7 35 13 47 78
6 36 5 37 -13 27 -19 -10 -33 -6 -33 10 0 3 10 9 22 12 21 6 21 7 3 27 -10 11
-16 22 -13 25 3 3 11 -1 18 -10 16 -19 30 -19 30 -1 0 8 5 18 11 22 9 5 10 -1
5 -21 -7 -27 -6 -27 25 -21 17 3 42 6 55 6 16 0 28 8 36 25 11 25 38 35 38 15z"/>
<path d="M3716 4282 c-3 -3 -6 -13 -6 -23 0 -13 10 -20 34 -25 34 -6 56 0 56
15 0 10 -77 41 -84 33z m59 -33 c16 -16 -20 -10 -41 7 -18 14 -18 15 6 8 14
-3 29 -10 35 -15z"/>
<path d="M3625 4267 c-50 -12 -51 -13 -35 -32 9 -11 22 -14 44 -9 39 8 50 18
40 36 -7 11 -18 12 -49 5z m35 -17 c0 -5 -15 -10 -32 -9 -28 0 -30 2 -13 9 28
12 45 12 45 0z"/>
<path d="M3547 4202 c-3 -15 -8 -34 -12 -43 -4 -10 0 -19 11 -23 22 -8 30 1
37 41 5 25 2 35 -12 43 -16 8 -19 5 -24 -18z m19 -50 c-11 -10 -14 3 -8 33 l7
30 3 -28 c2 -16 1 -31 -2 -35z"/>
<path d="M3694 4216 c-13 -33 23 -49 46 -21 15 18 13 20 -18 29 -15 5 -24 3
-28 -8z"/>
<path d="M3802 4218 c-18 -18 -15 -77 4 -85 24 -9 33 9 27 55 -6 44 -11 50
-31 30z m17 -40 c0 -31 -1 -31 -10 -10 -5 13 -7 28 -3 33 10 16 14 9 13 -23z"/>
<path d="M3652 4211 c-27 -7 -30 -22 -8 -36 18 -11 40 5 34 27 -2 9 -11 12
-26 9z m18 -15 c0 -11 -19 -15 -25 -6 -3 5 1 10 9 10 9 0 16 -2 16 -4z"/>
<path d="M3740 4175 c-15 -18 -6 -45 14 -45 20 0 29 16 21 40 -8 24 -18 25
-35 5z"/>
<path d="M3598 4155 c-4 -19 -1 -25 13 -25 24 0 33 18 19 35 -18 21 -27 18
-32 -10z"/>
<path d="M3663 4153 c-16 -6 -17 -59 -2 -68 19 -12 59 4 59 24 0 45 -19 60
-57 44z m40 -23 c3 -13 -1 -24 -13 -30 -15 -8 -20 -6 -25 11 -5 14 -2 25 6 30
21 13 26 11 32 -11z"/>
<path d="M3735 4109 c-4 -5 1 -19 11 -30 16 -18 19 -18 27 -4 17 31 -20 65
-38 34z"/>
<path d="M3530 4098 c0 -7 3 -30 6 -50 6 -33 9 -36 25 -27 19 10 25 43 13 73
-7 19 -44 22 -44 4z m30 -33 c0 -19 -2 -35 -4 -35 -2 0 -6 16 -8 35 -2 19 0
35 4 35 4 0 8 -16 8 -35z"/>
<path d="M3590 4096 c0 -8 3 -22 6 -30 5 -13 9 -14 20 -5 21 18 17 49 -6 49
-11 0 -20 -6 -20 -14z m30 -6 c0 -5 -4 -10 -10 -10 -5 0 -10 5 -10 10 0 6 5
10 10 10 6 0 10 -4 10 -10z"/>
<path d="M3794 4074 c-5 -26 -3 -39 7 -45 18 -11 26 -1 34 44 6 33 5 37 -13
37 -16 0 -23 -8 -28 -36z m29 -4 c-6 -22 -23 -38 -23 -21 0 17 12 41 20 41 5
0 6 -9 3 -20z"/>
<path d="M3697 4073 c-4 -3 -7 -15 -7 -25 0 -19 25 -24 49 -9 12 8 12 12 2 25
-14 17 -33 21 -44 9z m28 -13 c3 -5 -1 -10 -10 -10 -9 0 -13 5 -10 10 3 6 8
10 10 10 2 0 7 -4 10 -10z"/>
<path d="M3632 4047 c-14 -16 -6 -27 20 -27 13 0 18 6 16 17 -4 22 -22 27 -36
10z"/>
<path d="M3708 4013 c-19 -5 -24 -28 -8 -38 15 -10 92 15 87 28 -4 13 -50 19
-79 10z m52 -13 c-8 -5 -24 -10 -35 -10 -17 0 -17 2 -5 10 8 5 24 10 35 10 17
0 17 -2 5 -10z"/>
<path d="M3575 3999 c-4 -6 -5 -11 -4 -12 25 -15 78 -34 83 -30 12 12 6 41
-10 47 -25 9 -62 7 -69 -5z m74 -15 c2 -2 2 -7 -1 -10 -4 -3 -19 2 -35 11
l-28 16 30 -6 c16 -4 32 -9 34 -11z"/>
<path d="M3051 3954 c-58 -29 -105 -85 -121 -144 -5 -20 -9 -91 -7 -158 2
-116 1 -121 -19 -131 -12 -5 -30 -23 -40 -40 -10 -17 -23 -31 -29 -31 -5 0
-33 16 -62 36 l-52 36 6 58 c3 32 3 67 -1 77 -7 17 -8 17 -20 1 -7 -9 -19 -16
-27 -15 -24 3 -25 -17 -1 -28 13 -6 22 -19 22 -32 0 -36 -16 -35 -50 3 -23 27
-34 34 -43 25 -15 -15 37 -68 136 -138 42 -30 77 -58 77 -62 0 -4 -9 -32 -20
-63 -66 -189 -45 -399 51 -498 104 -107 342 -150 501 -90 75 28 149 98 184
173 45 100 33 240 -32 371 l-24 48 43 72 c24 39 50 70 58 69 8 0 29 -5 48 -9
43 -9 39 15 -5 29 -39 13 -38 10 -15 48 12 19 21 40 21 47 0 24 -25 12 -39
-19 l-14 -32 -18 48 c-10 26 -17 53 -16 59 1 6 -5 11 -13 11 -10 0 -14 -9 -13
-27 1 -22 -3 -28 -18 -28 -27 0 -19 -23 9 -30 12 -3 28 -17 36 -31 13 -25 10
-31 -30 -93 -23 -37 -45 -73 -47 -79 -3 -11 -61 47 -81 81 -17 30 -14 134 6
167 27 48 33 114 14 172 -49 147 -215 216 -355 147z m241 -39 c61 -43 101
-123 94 -188 -7 -68 -25 -100 -64 -111 -25 -7 -36 -5 -50 8 -25 22 -59 20 -74
-4 -20 -32 -117 -28 -186 7 -61 31 -67 46 -59 135 7 76 43 131 107 165 38 21
56 24 117 21 60 -3 79 -8 115 -33z m-262 -436 c36 -13 67 -24 69 -25 1 -2 -4
-24 -13 -51 -21 -65 -40 -203 -29 -214 13 -13 101 -15 113 -3 6 6 17 70 24
142 8 72 17 136 21 141 7 13 57 3 67 -13 4 -6 10 -36 14 -68 5 -45 10 -57 26
-61 30 -8 65 9 80 38 l14 25 37 -56 c51 -78 79 -171 79 -265 0 -125 -56 -215
-167 -270 -147 -72 -387 -37 -492 73 -58 60 -77 119 -77 243 -1 127 13 192 61
290 37 76 68 109 92 101 9 -3 45 -15 81 -27z"/>
<path d="M3060 3835 c-16 -20 -6 -45 19 -45 22 0 41 27 34 48 -6 17 -38 15
-53 -3z"/>
<path d="M3246 3832 c-8 -14 5 -52 19 -52 7 0 18 7 25 15 10 12 10 18 0 30
-14 16 -36 20 -44 7z"/>
<path d="M3123 3766 c-13 -6 -23 -14 -23 -18 0 -15 64 -98 76 -98 13 0 34 58
34 92 0 18 -29 39 -52 37 -7 -1 -23 -6 -35 -13z"/>
<path d="M2416 3445 c-8 -8 -16 -20 -18 -25 -2 -6 -23 -14 -47 -17 -37 -5 -43
-4 -39 9 4 8 2 21 -3 29 -8 11 -13 10 -28 -9 -12 -13 -22 -18 -26 -12 -3 5
-13 10 -22 10 -12 0 -14 -7 -10 -30 4 -16 2 -32 -3 -35 -17 -11 -11 -37 10
-42 37 -10 21 -68 -21 -77 -38 -7 -37 -31 1 -45 27 -9 30 -14 30 -50 0 -37 -2
-41 -25 -41 -28 0 -35 -24 -10 -34 13 -5 14 -10 5 -27 -16 -28 2 -48 25 -29
13 11 18 10 29 -5 15 -21 46 -14 46 10 0 18 7 19 49 4 17 -6 31 -16 31 -23 0
-7 5 -17 12 -24 17 -17 48 4 48 33 0 19 5 25 23 25 12 0 32 3 45 6 19 5 22 2
22 -20 0 -30 24 -35 39 -9 7 13 12 14 23 6 8 -7 19 -8 28 -3 11 7 12 11 0 24
-11 14 -10 19 5 36 20 22 13 40 -16 40 -18 0 -20 4 -14 33 9 41 13 47 31 47 8
0 14 9 14 20 0 13 -7 20 -20 20 -17 0 -20 7 -20 45 0 41 2 45 25 45 28 0 32
12 10 30 -12 10 -12 16 -4 26 6 8 9 21 5 29 -4 12 -10 13 -25 6 -14 -8 -22 -7
-31 4 -18 21 -41 19 -47 -5 -3 -11 -7 -20 -9 -20 -15 0 -74 31 -74 38 0 17
-29 22 -44 7z m34 -15 c0 -12 76 -49 101 -50 12 0 15 7 11 25 -5 30 13 34 21
4 5 -17 9 -19 26 -10 30 17 36 13 16 -9 -10 -11 -16 -22 -14 -24 2 -1 13 -8
24 -15 18 -11 17 -12 -7 -6 l-28 5 0 -60 c0 -53 2 -60 20 -60 25 0 26 -16 1
-23 -12 -3 -21 -17 -25 -41 -4 -21 -10 -45 -13 -53 -5 -13 -1 -15 20 -9 20 5
27 3 27 -9 0 -8 -7 -15 -15 -15 -18 0 -19 -12 -3 -28 6 -6 9 -15 5 -19 -4 -4
-13 -1 -19 5 -16 16 -28 15 -28 -2 0 -8 -5 -18 -11 -22 -9 -5 -10 1 -5 20 6
24 4 26 -23 26 -63 0 -90 -11 -93 -38 -4 -34 -26 -40 -37 -10 -6 16 -22 27
-55 36 -63 17 -69 16 -56 -7 7 -14 7 -22 -1 -26 -6 -4 -13 2 -16 14 -6 24 -8
25 -34 11 -20 -11 -28 3 -9 15 15 9 12 25 -4 25 -8 0 -18 5 -22 11 -5 9 1 10
20 5 26 -6 26 -6 26 53 0 58 0 59 -32 65 -28 6 -31 8 -15 17 9 6 21 7 27 4 12
-8 26 21 35 73 7 42 6 43 -13 33 -13 -7 -23 -7 -27 -2 -3 6 4 15 16 21 20 11
20 12 3 31 -9 10 -12 19 -6 19 6 0 14 -4 17 -10 9 -15 25 -12 25 4 0 8 5 18
11 22 9 5 10 -1 5 -21 -7 -27 -7 -28 31 -22 21 4 46 7 56 7 9 0 23 11 29 25
11 25 38 35 38 15z"/>
<path d="M2455 3382 c-3 -3 -5 -13 -5 -23 0 -13 10 -20 34 -25 37 -6 59 1 54
18 -4 12 -75 38 -83 30z m60 -33 c16 -16 -20 -10 -41 7 -18 14 -18 15 6 8 14
-3 29 -10 35 -15z"/>
<path d="M2365 3367 c-50 -12 -51 -13 -35 -32 9 -11 22 -14 44 -9 39 8 50 18
40 36 -7 11 -18 12 -49 5z m35 -17 c0 -5 -15 -10 -32 -9 -28 0 -30 2 -13 9 28
12 45 12 45 0z"/>
<path d="M2287 3302 c-3 -15 -8 -34 -12 -43 -4 -10 0 -19 11 -23 22 -8 30 1
37 41 5 25 2 35 -12 43 -16 8 -19 5 -24 -18z m19 -50 c-11 -10 -14 3 -8 33 l7
30 3 -28 c2 -16 1 -31 -2 -35z"/>
<path d="M2434 3316 c-13 -33 23 -49 46 -21 15 18 13 20 -18 29 -15 5 -24 3
-28 -8z"/>
<path d="M2542 3318 c-18 -18 -15 -77 4 -85 24 -9 33 9 27 55 -6 44 -11 50
-31 30z m17 -40 c0 -31 -1 -31 -10 -10 -5 13 -7 28 -3 33 10 16 14 9 13 -23z"/>
<path d="M2392 3311 c-27 -7 -30 -22 -8 -36 18 -11 40 5 34 27 -2 9 -11 12
-26 9z m18 -15 c0 -11 -19 -15 -25 -6 -3 5 1 10 9 10 9 0 16 -2 16 -4z"/>
<path d="M2480 3275 c-15 -18 -6 -45 14 -45 20 0 29 16 21 40 -8 24 -18 25
-35 5z"/>
<path d="M2338 3255 c-4 -19 -1 -25 13 -25 24 0 33 18 19 35 -18 21 -27 18
-32 -10z"/>
<path d="M2403 3253 c-16 -6 -17 -59 -2 -68 19 -12 59 4 59 24 0 45 -19 60
-57 44z m37 -12 c0 -5 3 -16 6 -24 3 -9 -3 -16 -15 -20 -25 -6 -41 30 -20 44
18 11 29 11 29 0z"/>
<path d="M2475 3209 c-4 -5 1 -19 11 -30 16 -18 19 -18 27 -4 17 31 -20 65
-38 34z"/>
<path d="M2275 3163 c8 -57 10 -60 30 -43 28 24 16 90 -17 90 -18 0 -20 -4
-13 -47z m25 2 c0 -19 -2 -35 -4 -35 -2 0 -6 16 -8 35 -2 19 0 35 4 35 4 0 8
-16 8 -35z"/>
<path d="M2330 3196 c0 -8 3 -22 6 -30 5 -13 9 -14 20 -5 21 18 17 49 -6 49
-11 0 -20 -6 -20 -14z m30 -6 c0 -5 -4 -10 -10 -10 -5 0 -10 5 -10 10 0 6 5
10 10 10 6 0 10 -4 10 -10z"/>
<path d="M2534 3174 c-5 -26 -3 -39 7 -45 18 -11 26 -1 34 44 6 33 5 37 -13
37 -16 0 -23 -8 -28 -36z m29 -4 c-6 -22 -23 -38 -23 -21 0 17 12 41 20 41 5
0 6 -9 3 -20z"/>
<path d="M2437 3173 c-4 -3 -7 -15 -7 -25 0 -19 25 -24 49 -9 12 8 12 12 2 25
-14 17 -33 21 -44 9z m28 -13 c3 -5 -1 -10 -10 -10 -9 0 -13 5 -10 10 3 6 8
10 10 10 2 0 7 -4 10 -10z"/>
<path d="M2372 3147 c-14 -16 -6 -27 20 -27 13 0 18 6 16 17 -4 22 -22 27 -36
10z"/>
<path d="M2448 3113 c-19 -5 -24 -28 -8 -38 15 -10 92 15 87 28 -4 13 -50 19
-79 10z m57 -13 c-3 -5 -18 -10 -33 -10 -21 0 -24 2 -12 10 20 13 53 13 45 0z"/>
<path d="M2315 3099 c-9 -13 -8 -14 37 -32 39 -16 48 -14 48 14 0 25 -72 41
-85 18z m74 -15 c2 -2 2 -7 -1 -10 -4 -3 -19 2 -35 11 l-28 16 30 -6 c16 -4
32 -9 34 -11z"/>
<path d="M4859 3433 l-24 -28 28 24 c25 23 32 31 24 31 -2 0 -14 -12 -28 -27z"/>
<path d="M4204 3231 c-150 -41 -233 -76 -325 -136 -86 -57 -99 -64 -80 -42 6
8 8 17 5 20 -7 7 45 32 59 29 4 -1 7 5 7 14 0 15 -3 14 -27 -1 -59 -38 -67
-45 -54 -45 10 0 11 -3 2 -13 -6 -8 -9 -16 -6 -18 2 -3 -32 -41 -76 -84 -44
-44 -90 -97 -101 -117 -12 -20 -26 -34 -31 -31 -6 3 -7 1 -3 -6 4 -6 3 -17 -2
-24 -5 -7 -17 -36 -27 -65 -9 -28 -20 -50 -25 -47 -4 3 -6 -5 -2 -17 4 -16 2
-19 -8 -13 -10 6 -12 3 -8 -13 8 -30 -10 -38 -22 -10 l-10 23 2 -25 c3 -57 -4
-134 -10 -118 -12 30 -6 -183 8 -262 24 -144 93 -299 193 -435 61 -83 134
-153 279 -267 200 -157 406 -360 524 -518 75 -100 104 -156 105 -207 1 -37 1
-38 9 -8 l7 30 8 -30 c4 -16 11 -34 15 -40 14 -19 20 -64 10 -70 -14 -9 -13
-26 2 -23 7 2 14 -10 18 -27 5 -28 6 -26 19 23 10 34 18 48 23 40 5 -9 8 -6 8
10 0 12 4 22 9 22 5 0 7 8 4 19 -6 25 40 139 96 235 55 95 123 166 222 232 41
26 75 52 77 56 5 10 73 52 92 56 8 2 20 4 27 4 7 1 10 5 7 9 -2 5 9 15 25 23
23 12 31 13 34 3 4 -9 6 -9 6 0 1 7 7 10 14 7 7 -2 21 4 31 15 10 11 23 18 27
15 5 -3 9 -1 9 5 0 13 38 27 83 30 11 1 15 6 11 13 -5 8 -2 9 10 5 11 -5 15
-3 10 5 -5 8 -2 9 10 5 11 -5 15 -3 10 5 -5 8 -2 9 10 5 9 -4 15 -3 12 2 -3 5
1 12 10 15 8 3 12 2 9 -4 -3 -6 1 -7 9 -4 9 3 13 11 9 17 -4 7 0 8 13 3 10 -4
15 -4 12 0 -7 6 54 43 79 48 7 1 19 10 26 21 9 11 19 15 27 10 8 -5 11 -4 7 2
-4 6 3 19 15 29 21 19 21 19 15 -1 -5 -13 4 -7 23 15 17 19 35 35 40 35 6 0
22 14 36 30 14 17 22 24 18 16 -4 -9 -2 -12 7 -9 8 3 14 10 14 16 0 6 7 17 15
24 12 11 12 11 0 -6 -13 -17 -13 -19 0 -14 8 2 15 13 15 24 0 10 7 19 15 19 8
0 17 5 20 10 3 5 51 56 108 113 56 57 102 109 102 115 0 7 4 6 10 -3 7 -11 10
-11 10 -2 0 7 5 10 10 7 6 -3 10 -1 10 6 0 6 22 42 49 79 28 37 47 70 44 73
-5 6 32 113 64 187 27 61 35 102 38 195 2 73 -2 103 -21 162 -26 77 -31 116
-9 68 8 -16 14 -25 15 -19 0 19 -59 142 -72 150 -10 6 -10 5 -1 -7 14 -17 35
-69 28 -69 -9 0 -46 81 -40 89 2 5 -3 15 -13 22 -16 13 -16 12 -2 -6 15 -20
14 -20 -8 -1 -23 20 -31 42 -9 30 7 -4 9 -3 4 2 -5 5 -12 9 -16 9 -4 0 -34 24
-67 53 -33 30 -70 59 -81 65 -11 7 -35 22 -54 35 -43 28 -208 82 -252 82 -18
0 -38 5 -45 12 -8 8 -53 13 -124 14 -134 2 -148 5 -88 14 l45 7 -42 1 c-23 1
-44 -2 -47 -7 -3 -5 -16 -7 -29 -4 -18 4 -19 3 -7 -6 12 -8 8 -11 -17 -11 -34
0 -167 -39 -248 -73 -99 -41 -193 -127 -263 -242 l-31 -50 -10 27 c-5 14 -14
43 -20 65 -6 22 -29 67 -50 101 -62 96 -158 157 -294 186 -73 16 -182 16 -208
0 -5 -3 -9 0 -9 5 0 14 4 14 -116 -18z m196 -122 c0 -7 67 -24 88 -22 6 0 12
-4 12 -10 0 -6 3 -8 6 -5 6 7 20 -4 83 -62 45 -42 53 -76 22 -104 -17 -16 -85
-20 -75 -5 3 6 -11 15 -34 20 -4 1 -11 7 -17 14 -20 24 -99 46 -165 47 -69 0
-168 -23 -192 -45 -7 -6 -20 -13 -28 -15 -8 -2 -21 -10 -27 -19 -7 -9 -13 -13
-13 -7 0 5 -15 -7 -33 -27 -17 -19 -27 -28 -22 -19 6 9 -9 -4 -32 -29 -46 -50
-135 -193 -137 -220 0 -9 -7 -22 -14 -30 -7 -7 -11 -20 -8 -27 3 -8 1 -14 -5
-14 -6 0 -8 -7 -5 -16 4 -10 2 -13 -6 -8 -7 5 -9 0 -6 -14 4 -12 2 -22 -4 -22
-6 0 -8 -9 -5 -20 3 -11 2 -18 -3 -15 -9 6 -20 -54 -20 -113 0 -24 10 -65 21
-93 20 -46 21 -50 5 -75 -14 -20 -24 -25 -49 -22 -27 3 -36 10 -57 53 -51 103
-34 258 50 456 16 38 27 69 24 69 -3 0 5 10 16 22 11 12 18 28 15 36 -2 7 -1
11 3 8 5 -3 16 8 26 25 9 16 15 29 13 29 -3 0 10 16 29 36 18 20 32 40 31 44
-1 5 3 9 8 10 6 2 34 24 63 51 58 53 175 116 234 125 21 4 38 9 38 13 0 3 38
6 85 6 47 0 85 -3 85 -6z m-923 -671 c-3 -7 -5 -2 -5 12 0 14 2 19 5 13 2 -7
2 -19 0 -25z m339 -383 c7 -5 10 -13 7 -17 -2 -5 -1 -8 4 -8 4 0 8 -13 8 -29
0 -16 -3 -27 -7 -24 -5 2 -9 -1 -9 -6 -1 -6 -2 -17 -3 -23 -1 -15 -54 -12 -73
3 -18 16 -24 58 -11 82 7 12 12 24 11 27 -3 9 62 5 73 -5z m2345 -33 c-5 -10
-18 -25 -27 -33 -16 -12 -17 -12 -9 1 10 18 37 50 42 50 2 0 -1 -8 -6 -18z
m-84 -94 c-24 -24 -63 -58 -85 -76 -23 -18 -41 -37 -39 -42 5 -20 -336 -271
-350 -256 -3 3 -20 -5 -37 -18 -32 -25 -90 -56 -102 -56 -13 0 45 48 67 55 12
4 42 20 67 36 25 16 49 26 53 23 5 -3 9 0 9 6 0 6 5 8 10 5 6 -3 10 1 10 9 0
9 4 16 9 16 5 0 19 11 32 25 13 14 32 30 41 36 14 8 16 6 11 -8 -6 -16 -5 -16
10 -4 9 7 14 17 12 22 -3 4 4 13 15 19 11 6 20 8 20 5 0 -3 21 10 46 30 26 19
51 35 56 35 5 0 7 4 4 9 -3 5 35 46 84 90 95 85 134 112 57 39z m-657 -468
c-19 -11 -39 -19 -45 -19 -5 0 6 8 25 19 19 11 40 19 45 19 6 0 -6 -8 -25 -19z
m-65 -28 c-13 -11 -65 -33 -65 -27 0 2 12 11 28 19 30 17 52 21 37 8z m-185
-86 c0 -2 -24 -18 -52 -36 -29 -18 -66 -42 -83 -53 -19 -12 -24 -14 -15 -4 8
9 44 34 80 56 69 43 70 43 70 37z"/>
<path d="M5623 3253 c9 -2 25 -2 35 0 9 3 1 5 -18 5 -19 0 -27 -2 -17 -5z"/>
<path d="M5708 3243 c12 -2 32 -2 45 0 12 2 2 4 -23 4 -25 0 -35 -2 -22 -4z"/>
<path d="M4063 3233 c-14 -5 -18 -23 -5 -23 5 0 17 7 28 15 14 11 15 14 4 14
-8 0 -21 -3 -27 -6z"/>
<path d="M5378 3233 c7 -3 16 -2 19 1 4 3 -2 6 -13 5 -11 0 -14 -3 -6 -6z"/>
<path d="M5872 3215 c48 -13 119 -40 157 -60 39 -19 71 -33 71 -30 0 20 -248
116 -296 114 -10 0 20 -11 68 -24z"/>
<path d="M3979 3199 c-9 -5 -1 -7 20 -4 18 2 35 6 37 8 9 8 -44 5 -57 -4z"/>
<path d="M6180 3066 c0 -2 8 -10 18 -17 15 -13 16 -12 3 4 -13 16 -21 21 -21
13z"/>
<path d="M3727 3029 c-40 -33 -104 -119 -89 -119 5 0 37 34 71 75 34 41 61 75
59 75 -2 0 -20 -14 -41 -31z"/>
<path d="M3586 2874 c-5 -14 -4 -15 9 -4 17 14 19 20 6 20 -5 0 -12 -7 -15
-16z"/>
<path d="M3525 2781 c-12 -23 -12 -31 -2 -37 6 -4 9 -4 5 1 -4 4 -1 20 8 36 8
16 12 29 10 29 -3 0 -12 -13 -21 -29z"/>
<path d="M6351 2279 c-14 -42 -7 -49 9 -9 7 17 10 33 8 36 -3 3 -11 -9 -17
-27z"/>
<path d="M6150 1947 c-8 -7 -40 -39 -70 -72 -54 -59 -53 -59 18 10 40 38 72
71 72 72 0 5 -5 3 -20 -10z"/>
<path d="M3822 1133 c-18 -7 -35 -20 -38 -28 -4 -8 -12 -15 -19 -15 -6 0 -20
-10 -31 -22 -13 -14 -14 -19 -4 -14 8 4 6 0 -5 -9 -11 -9 -19 -23 -17 -31 2
-8 -2 -14 -7 -14 -11 0 -6 -42 9 -93 12 -37 -3 -26 -24 18 -32 66 -97 86 -165
51 -47 -25 -71 -71 -71 -135 0 -102 60 -147 231 -176 52 -9 114 -26 139 -38
44 -21 45 -23 42 -63 -2 -25 2 -44 10 -51 15 -12 50 -14 42 -2 -2 4 0 10 5 13
12 8 3 42 -14 56 -16 13 -3 68 28 119 11 19 15 31 8 26 -23 -13 31 54 55 70
25 16 76 83 53 70 -7 -4 -4 2 9 14 23 22 30 37 12 26 -15 -9 -12 8 7 34 10 15
11 21 3 16 -10 -6 -12 -1 -7 24 4 18 3 30 -2 27 -5 -3 -12 1 -15 10 -3 9 -2
12 5 8 6 -3 3 8 -6 25 -9 18 -23 35 -31 38 -7 3 -14 11 -14 19 0 7 -10 18 -21
25 -12 6 -19 7 -15 1 4 -6 -2 -8 -14 -5 -11 3 -17 9 -14 14 8 14 -87 8 -124
-8z"/>
<path d="M5954 1112 c-45 -4 -111 -64 -125 -113 -10 -33 -9 -49 6 -98 9 -32
14 -65 10 -71 -5 -8 -4 -11 2 -7 6 4 14 0 17 -9 4 -10 2 -13 -7 -9 -6 4 -4 0
7 -9 10 -8 15 -20 10 -27 -4 -7 -3 -10 3 -6 6 4 14 0 17 -9 3 -8 2 -12 -4 -9
-6 3 -10 1 -10 -4 0 -6 6 -11 14 -11 8 0 17 -7 20 -16 10 -26 7 -29 -9 -8 -13
17 -14 16 -4 -14 8 -22 14 -30 19 -22 4 7 8 -9 8 -34 1 -30 -3 -46 -11 -46
-22 -1 -50 -29 -52 -55 -2 -14 1 -23 6 -19 5 3 9 0 9 -5 0 -6 5 -11 11 -11 5
0 7 5 3 12 -5 7 -3 8 6 3 7 -4 16 -2 21 6 12 20 11 31 -3 23 -7 -4 -8 -3 -4 5
4 6 12 9 17 6 5 -4 9 0 9 7 0 21 59 38 136 39 51 0 64 3 49 10 -17 8 -16 9 5
4 52 -13 160 -18 160 -8 0 5 12 15 26 21 14 7 23 8 19 2 -3 -5 -3 -10 2 -10 4
0 15 15 24 33 9 17 22 31 29 29 6 -1 9 2 5 8 -3 5 -1 10 5 10 7 0 9 7 6 16 -4
10 -2 13 6 8 8 -5 9 1 4 20 -4 18 -3 25 3 21 7 -4 10 9 8 34 -1 23 -6 41 -10
41 -5 0 -6 4 -3 9 8 13 -92 111 -114 111 -10 0 -22 5 -25 10 -3 6 -32 10 -63
10 -41 0 -53 -3 -42 -10 12 -8 12 -10 -5 -10 -10 0 -36 -16 -57 -36 -29 -30
-36 -33 -31 -16 3 12 11 27 19 33 8 6 14 29 14 53 -1 75 -70 127 -156 118z
m143 -498 c-3 -3 -12 -4 -19 -1 -8 3 -5 6 6 6 11 1 17 -2 13 -5z"/>
<path d="M6360 926 c0 -2 8 -10 18 -17 15 -13 16 -12 3 4 -13 16 -21 21 -21
13z"/>
<path d="M4582 670 c0 -14 2 -19 5 -12 2 6 2 18 0 25 -3 6 -5 1 -5 -13z"/>
<path d="M4701 635 c-1 -22 -4 -48 -6 -59 -2 -12 0 -15 6 -9 6 6 8 32 6 59 -3
47 -3 48 -6 9z"/>
<path d="M3720 640 c34 -11 60 -11 35 0 -11 5 -29 8 -40 8 -16 0 -15 -2 5 -8z"/>
<path d="M3788 623 c7 -3 16 -2 19 1 4 3 -2 6 -13 5 -11 0 -14 -3 -6 -6z"/>
<path d="M4622 525 c0 -16 2 -22 5 -12 2 9 2 23 0 30 -3 6 -5 -1 -5 -18z"/>
<path d="M4700 506 c0 -14 5 -26 10 -26 6 0 10 9 10 19 0 11 -4 23 -10 26 -6
4 -10 -5 -10 -19z"/>
<path d="M4711 424 c0 -11 3 -14 6 -6 3 7 2 16 -1 19 -3 4 -6 -2 -5 -13z"/>
<path d="M5202 350 c-31 -13 -47 -30 -60 -65 -8 -24 -11 -26 -11 -9 -1 28 -32
54 -63 54 -37 0 -68 -29 -74 -71 -5 -28 -1 -41 20 -66 14 -17 39 -36 56 -43
16 -7 27 -16 24 -21 -3 -5 3 -6 12 -2 12 4 15 3 10 -5 -4 -7 -2 -10 7 -6 19 7
42 -23 42 -55 0 -35 19 -38 25 -4 6 35 39 85 51 77 5 -3 9 -1 9 4 0 5 13 15
30 22 26 11 70 60 54 60 -4 0 -2 6 4 13 6 7 9 22 7 32 -2 11 -4 25 -4 31 -3
41 -88 74 -139 54z"/>
</g>
</svg>
