<?xml version="1.0" standalone="no"?>
<!DOCTYPE svg PUBLIC "-//W3C//DTD SVG 20010904//EN"
 "http://www.w3.org/TR/2001/REC-SVG-20010904/DTD/svg10.dtd">
<svg version="1.0" xmlns="http://www.w3.org/2000/svg"
 width="150.000000pt" height="150.000000pt" viewBox="0 0 150.000000 150.000000"
 preserveAspectRatio="xMidYMid meet">

<g transform="translate(0.000000,150.000000) scale(0.100000,-0.100000)"
fill="#000000" stroke="none">
<path d="M270 1446 c-61 -16 -109 -47 -159 -101 -69 -75 -86 -123 -85 -245 0
-92 4 -116 32 -194 57 -161 110 -231 340 -445 154 -144 253 -259 297 -346 28
-57 41 -66 52 -39 5 13 8 13 15 2 8 -10 11 -10 15 0 2 7 29 47 59 90 56 79
468 491 491 492 7 0 15 12 19 28 3 15 21 56 39 92 78 153 99 313 56 428 -30
79 -121 181 -194 216 -171 83 -415 3 -495 -161 l-15 -33 -33 48 c-95 141 -275
211 -434 168z m190 -66 c27 -14 26 -56 -1 -70 -11 -7 -44 -18 -72 -27 -29 -8
-68 -23 -87 -33 -37 -19 -140 -44 -148 -36 -9 10 49 95 89 129 22 20 57 40 77
46 41 11 113 7 142 -9z m732 10 c37 -11 55 -26 44 -37 -3 -4 -50 -12 -104 -19
-97 -13 -167 -36 -213 -72 -24 -19 -79 -37 -79 -27 0 34 88 126 144 151 37 16
156 18 208 4z"/>
</g>
</svg>
